<?xml version="1.0" encoding="utf-8"?>
<!-- Generator: Adobe Illustrator 15.0.0, SVG Export Plug-In . SVG Version: 6.00 Build 0)  -->
<!DOCTYPE svg PUBLIC "-//W3C//DTD SVG 1.1//EN" "http://www.w3.org/Graphics/SVG/1.1/DTD/svg11.dtd">
<svg version="1.1" id="레이어_1" xmlns="http://www.w3.org/2000/svg" xmlns:xlink="http://www.w3.org/1999/xlink" x="0px"
	 y="0px" width="238px" height="164px" viewBox="0 0 238 164" enable-background="new 0 0 238 164" xml:space="preserve">
<g>
	<g>
		<path fill="#E0FBFC" d="M25.013,159.999c-9.824,0-19.618-9.434-19.618-19.414V89.219c0-9.383,8.902-16.731,19.618-16.731h32.263
			c-0.005-0.127-0.516-0.259-0.516-0.39V40.146H25.013c-9.964,0-18.073-8.108-18.073-18.073C6.94,12.108,15.049,4,25.013,4h51.366
			c3.108,0,6.082,0.733,8.666,2.102C87.635,4.733,90.544,4,93.5,4h51.367c10.028,0,16.527,6.881,16.527,16.732v25.683
			c0,5.169-1.557,9.874-4.622,13.306c3.675,3.348,6.04,8.104,6.04,13.243c0,3.004-0.689,5.947-2.102,8.561
			c1.278,2.371,2.049,5.012,2.178,7.725l13.424-13.409c3.025-3.027,7.064-4.694,11.352-4.694c4.288,0,8.319,1.667,11.348,4.694
			l27.71,27.718c3.014,3.01,4.68,7.022,4.684,11.304c0,4.301-1.672,8.345-4.713,11.383l-27.738,27.71
			c-3.033,3.031-7.084,4.702-11.403,4.702c-4.295,0-8.726-1.712-11.714-4.706l-14.442-14.027v0.662
			c0,9.965-8.107,18.073-18.073,18.073c-9.965,0-18.073-8.108-18.073-18.073v-5.317h-15.219v5.317
			c0,10.032-7.746,18.191-17.583,18.191c-2.551,0-4.816-0.49-7.02-1.466c-2.846,1.75-5.887,2.69-9.049,2.69H25.013V159.999z
			 M25.013,87.707c-2.03,0-4.398-0.095-4.398,1.512v51.366c0,2.166,2.361,6.097,4.398,6.097h50.213
			c-0.499-1.902-1.341-4.228-1.341-6.097v-1.513h-45.66V95.316h47.681c-0.295-1.902-0.459-2.631-0.478-3.961
			c-4.295-0.101-7.94-3.648-10.563-3.648H25.013z M185.903,143.854c0.346,0.346,0.974,0.535,1.52,0.535
			c0.541,0,1.107-0.189,1.435-0.517l27.752-27.717c0.682-0.683,0.684-1.812-0.015-2.512l-27.737-27.706
			c-0.453-0.454-0.996-0.521-1.282-0.521c-0.29,0-0.834,0.066-1.286,0.517l-25.01,24.649c0.313,1.561,0.117,3.053,0.117,4.319v4.914
			L185.903,143.854z M140.468,120.048v20.537c0,2.099,1.705,3.805,3.805,3.805s3.805-1.706,3.805-3.805v-15.012
			c-3.805-3.636-4.828-8.472-3.981-13.135h-22.652V95.316h23.424c1.863,0,3.467-1.943,3.759-3.797
			c-1.26,0.312-2.507-0.008-3.759-0.008H94.406c-0.07,0.959-0.215,1.902-0.43,3.805h19.858v17.122H93.5
			c-2.028,0-4.398,0.856-4.398,2.464v13.619c3.805,3.424,5.352,8.109,5.352,12.929c0,0.944,0.015,1.851-0.143,2.705
			c1.367-0.523,2.401-1.888,2.401-3.57v-20.537H140.468z M73.883,123.853v-8.95c0-2.196,0.973-4.314,1.824-6.269H41.542v15.219
			H73.883z M144.867,72.487c1.312,0,2.575,0.596,3.786,0.832c-0.18-1.853-1.748-2.734-3.786-2.734H96.712V51.561h48.155
			c1.396,0,3.21-2.549,3.21-5.146V20.732c0-1.712-0.706-1.513-3.21-1.513c0,0-51.496,0-51.563,0c0.087,0-0.397,0.741-0.397,1.513
			v5.112c0,0.02,0.584,0.034,0.621,0.04l46.94-0.005v18.073H92.907c0,0,0,28.407,0,28.536c0,0,0.563,0,0.593,0H144.867z
			 M74.395,72.487c-0.002-0.129,0.218-26.073,0.218-26.073c0-4.288,1.174-8.385,4.979-11.547V32.86
			c-3.805-3.789-4.179-6.973-4.179-10.667c0-1.158-0.092-2.974,0.177-2.974H25.013c-2.098,0-3.805,1.707-3.805,3.805
			c0,2.098,1.707,3.805,3.805,3.805H71.98v45.268c0,0.083-0.394,0.223-0.327,0.39H74.395z"/>
		
			<rect x="174.608" y="101.823" transform="matrix(0.7071 -0.7071 0.7071 0.7071 -26.271 166.341)" fill="#E0FBFC" width="26.126" height="26.124"/>
	</g>
	<g>
		<path fill="#C3F0F4" d="M223.357,106.921l-27.706-27.718c-2.131-2.13-4.966-3.3-7.979-3.3c-3.018,0-5.853,1.17-7.979,3.3
			l-26.257,26.254c-1.379-1.189-3.051-2.064-4.945-2.561c5.584-1.579,9.694-6.724,9.694-12.812c0-3.253-1.171-6.238-3.131-8.561
			c1.956-2.321,3.131-5.308,3.131-8.561c0-6.163-4.232-11.367-9.939-12.879c5.395-1.655,9.345-7.163,9.345-13.669V20.732
			c0-7.22-5.336-11.025-12.723-11.025H93.5c-3.222,0-6.183,1.151-8.484,3.054c-2.217-1.921-5.203-3.054-8.637-3.054H25.013
			c-7.341,0-13.317,5.974-13.317,13.317c0,7.343,5.976,13.317,13.317,13.317h37.455v35.756c0,1.646,0.327,4.195,0.879,6.098H25.013
			c-7.781,0-13.911,4.042-13.911,11.024v51.366c0,7.42,6.644,15.609,13.911,15.609h51.366c3.386,0,6.497-1.988,8.838-4.062
			c2.179,1.568,4.836,2.126,7.707,2.126c7.344,0,13.302-6.332,13.302-13.676v-11.022h24.731v11.024
			c0,7.342,5.974,13.316,13.317,13.316s13.317-5.975,13.317-13.316v-12.052l22.084,22.058c2.129,2.131,4.972,3.311,7.988,3.311
			c3.014,0,5.853-1.18,7.983-3.311l27.71-27.706C227.764,118.479,227.764,111.316,223.357,106.921z M93.5,40.146h41.26v-9.512H93.5
			c-1.598,0-2.496-0.913-4.398-1.684v-8.218c0-2.055-0.42-3.709-1.21-5.365c1.503-1.303,3.469-1.855,5.609-1.855h51.367
			c4.727,0,7.016,2.492,7.016,7.22v25.683c0,4.727-2.289,10.854-7.016,10.854h-44.351v7.61h44.351c4.727,0,8.561,3.596,8.561,8.323
			c0,2.102-0.76,4.638-2.024,6.12c-1.933-1.093-4.158-1.125-6.536-1.125H93.5c-2.083,0-4.067-0.238-5.818,0.619
			c0.923-1.798,1.421-4.557,1.421-6.716V39.623C91.005,39.033,91.959,40.146,93.5,40.146z M89.135,34.572v-0.399
			c0.218,0.085,0.438,0.152,0.668,0.219C89.572,34.448,89.353,34.506,89.135,34.572z M25.013,30.634
			c-4.725,0-8.561-3.833-8.561-8.561c0-4.728,3.836-8.561,8.561-8.561h51.366c2.264,0,4.186,0.438,5.585,1.674
			c-1.132,1.96-2.271,4.115-2.271,6.531c0,3.814,1.801,7.138,3.704,9.575v5.669c-1.903,2.264-3.805,5.631-3.805,9.455v25.683
			c0,1.846,0.015,4.376,0.921,6.05c-1.307-0.439-2.688,0.045-4.134,0.045h-7.724c-0.884-1.902-2.382-4.366-2.382-6.098V30.634
			H25.013z M81.687,148.243c-1.494,1.256-3.206,2.244-5.308,2.244H25.013c-4.725,0-10.105-5.177-10.105-9.902V89.219
			c0-4.726,5.378-7.219,10.105-7.219h41.409c2.416,1.903,5.735,3.653,9.396,3.653c2.073,0,4.033-0.595,5.792-1.442
			c-0.911,1.807-1.427,3.783-1.427,5.935c0,2.366,0.628,4.801,1.721,6.732c-1.493,1.274-3.415,2.244-5.526,2.244h-44.35v34.244
			h44.35c1.151,0,1.309-0.247,3.211,0.161v7.059c0,2.701,0.826,5.332,2.206,7.435C81.755,148.057,81.725,148.204,81.687,148.243z
			 M79.59,114.902v13.631c-1.902-0.257-2.089,1.027-3.211,1.027H37.737v-24.731h38.642c3.262,0,6.25-1.894,8.561-3.843
			c1.398,1.189,3.038,1.725,4.845,2.248C83.859,104.654,79.59,109.072,79.59,114.902z M151.883,140.585
			c0,4.726-3.835,8.561-8.562,8.561s-8.561-3.835-8.561-8.561v-14.829h-34.244v14.829c0,4.726-3.34,8.561-8.07,8.561
			c-1.759,0-3.65-0.531-5.011-1.456c0.009,0-0.236-0.008-0.236-0.008v-0.011c1.902-1.864,2.022-3.977,2.022-6.223
			c0-4.347-2.348-8.206-5.575-10.646c0,0-0.254,0-0.254-0.008V114.9c0-4.725,5.378-6.269,10.106-6.269h16.53v-9.513H93.5
			c-2.109,0-4.024-0.997-5.515-2.261c1.084-1.934,1.71-4.288,1.71-6.654c0-1.665-0.305-2.608-0.875-4.084
			c1.483,0.599,3.063,1.587,4.68,1.587h51.367c2.378,0,4.604-1.342,6.536-2.434c1.265,1.482,2.024,3.303,2.024,5.406
			c0,4.726-3.834,8.443-8.561,8.443H127.15v9.513h17.717c2.196,0,4.082-0.076,5.458,1.094c-2.652,4.336-2.593,9.756,1.156,13.514
			l0.401,0.533V140.585z M220.002,119.517l-27.719,27.718c-2.549,2.549-6.701,2.549-9.25,0l-25.443-25.437v-6.896
			c0-2.074-0.42-3.985-1.241-5.65L183.04,82.57c2.549-2.549,6.69-2.549,9.239,0l27.719,27.709
			C222.551,112.828,222.551,116.966,220.002,119.517z"/>
		
			<rect x="179.382" y="106.593" transform="matrix(-0.707 0.7072 -0.7072 -0.707 401.6501 63.4123)" fill="#C3F0F4" width="16.617" height="16.614"/>
	</g>
</g>
</svg>
