<?xml version="1.0" encoding="utf-8"?>
<!-- Generator: Adobe Illustrator 15.0.0, SVG Export Plug-In . SVG Version: 6.00 Build 0)  -->
<!DOCTYPE svg PUBLIC "-//W3C//DTD SVG 1.1//EN" "http://www.w3.org/Graphics/SVG/1.1/DTD/svg11.dtd">
<svg version="1.1" id="레이어_1" xmlns="http://www.w3.org/2000/svg" xmlns:xlink="http://www.w3.org/1999/xlink" x="0px"
	 y="0px" width="238px" height="164px" viewBox="0 0 238 164" enable-background="new 0 0 238 164" xml:space="preserve">
<g>
	<g>
		<path fill="#E0FBFC" d="M69.312,123C64.148,123,59,118.041,59,112.795v-27C59,80.863,63.679,77,69.312,77h16.959
			C86.268,76.933,86,76.864,86,76.795V60H69.312c-5.238,0-9.5-4.262-9.5-9.5s4.262-9.5,9.5-9.5h27c1.634,0,3.197,0.385,4.555,1.105
			c1.362-0.72,2.891-1.105,4.445-1.105h27c5.272,0,8.688,3.617,8.688,8.795v13.5c0,2.717-0.818,5.19-2.43,6.994
			c1.932,1.76,3.175,4.26,3.175,6.961c0,1.579-0.362,3.126-1.104,4.5c0.672,1.246,1.077,2.635,1.144,4.06l7.057-7.048
			c1.59-1.591,3.712-2.467,5.966-2.467s4.373,0.876,5.965,2.467l14.566,14.57c1.584,1.582,2.46,3.691,2.462,5.941
			c0,2.261-0.879,4.387-2.478,5.984l-14.58,14.566c-1.595,1.593-3.724,2.471-5.994,2.471c-2.258,0-4.587-0.9-6.157-2.473
			L141,112.448v0.347c0,5.238-4.262,9.5-9.5,9.5s-9.5-4.262-9.5-9.5V110h-8v2.795c0,5.273-4.072,9.563-9.242,9.563
			c-1.341,0-2.532-0.259-3.69-0.771c-1.496,0.92-3.095,1.414-4.757,1.414H69.312z M69.312,85C68.245,85,67,84.95,67,85.795v27
			c0,1.138,1.241,3.205,2.312,3.205h26.394c-0.262-1-0.705-2.223-0.705-3.205V112H71V89h25.063c-0.155-1-0.241-1.383-0.251-2.082
			C93.554,86.865,91.638,85,90.26,85H69.312z M153.883,114.514c0.182,0.182,0.512,0.281,0.798,0.281c0.285,0,0.582-0.1,0.755-0.272
			l14.587-14.569c0.359-0.359,0.36-0.952-0.007-1.32l-14.581-14.564c-0.238-0.238-0.523-0.273-0.674-0.273s-0.438,0.035-0.675,0.272
			l-13.146,12.956c0.163,0.82,0.061,1.605,0.061,2.271v2.583L153.883,114.514z M130,102v10.795c0,1.104,0.897,2,2,2
			c1.104,0,2-0.896,2-2v-7.891c-2-1.911-2.538-4.453-2.093-6.904H120v-9h12.312c0.98,0,1.823-1.022,1.976-1.996
			c-0.662,0.164-1.318-0.004-1.976-0.004h-26.524c-0.037,0.504-0.113,1-0.226,2H116v9h-10.688c-1.066,0-2.312,0.45-2.312,1.295
			v7.159c2,1.8,2.813,4.263,2.813,6.796c0,0.496,0.008,0.973-0.075,1.422c0.718-0.275,1.262-0.992,1.262-1.877V102H130z M95,104
			v-4.705c0-1.154,0.511-2.268,0.959-3.295H78v8H95z M132.312,77c0.69,0,1.354,0.313,1.991,0.437
			c-0.095-0.974-0.919-1.437-1.991-1.437H107V66h25.312c0.734,0,1.688-1.34,1.688-2.705v-13.5c0-0.9-0.371-0.795-1.688-0.795
			c0,0-27.068,0-27.103,0c0.046,0-0.209,0.389-0.209,0.795v2.687c0,0.01,0.307,0.018,0.326,0.021L130,52.5V62h-25c0,0,0,14.932,0,15
			c0,0,0.296,0,0.312,0H132.312z M95.269,77c-0.001-0.068,0.115-13.705,0.115-13.705c0-2.254,0.617-4.408,2.617-6.07V56.17
			c-2-1.992-2.197-3.665-2.197-5.607c0-0.609-0.048-1.563,0.093-1.563H69.312c-1.103,0-2,0.897-2,2s0.897,2,2,2H94v23.795
			c0,0.044-0.207,0.117-0.172,0.205H95.269z"/>
		
			<rect x="147.946" y="92.428" transform="matrix(-0.7071 0.7071 -0.7071 -0.7071 334.4908 60.0294)" fill="#E0FBFC" width="13.733" height="13.733"/>
	</g>
	<g>
		<path fill="#C3F0F4" d="M173.571,95.1l-14.564-14.57c-1.12-1.12-2.61-1.735-4.195-1.735s-3.075,0.615-4.194,1.735l-13.801,13.8
			c-0.725-0.625-1.604-1.085-2.6-1.346c2.935-0.83,5.095-3.534,5.095-6.734c0-1.71-0.615-3.28-1.645-4.5
			c1.029-1.22,1.645-2.79,1.645-4.5c0-3.24-2.224-5.975-5.224-6.77c2.836-0.87,4.912-3.765,4.912-7.185v-13.5
			C139,46,136.196,44,132.312,44h-27c-1.694,0-3.25,0.605-4.46,1.605C99.687,44.595,98.117,44,96.312,44h-27c-3.859,0-7,3.14-7,7
			s3.141,7,7,7H89v18.795C89,77.66,89.172,79,89.462,80h-20.15C65.222,80,62,82.125,62,85.795v27c0,3.9,3.492,8.205,7.312,8.205h27
			c1.78,0,3.415-1.045,4.646-2.135c1.145,0.824,2.542,1.117,4.051,1.117c3.86,0,6.992-3.328,6.992-7.188V107h13v5.795
			c0,3.859,3.14,7,7,7s7-3.141,7-7v-6.335l11.609,11.595c1.119,1.12,2.613,1.74,4.198,1.74s3.077-0.62,4.197-1.74l14.565-14.564
			C175.886,101.175,175.887,97.41,173.571,95.1z M105.312,60H127v-5h-21.688c-0.84,0-1.312-0.48-2.312-0.885v-4.32
			c0-1.08-0.221-1.95-0.636-2.82c0.79-0.685,1.823-0.975,2.948-0.975h27c2.485,0,3.688,1.31,3.688,3.795v13.5
			c0,2.485-1.203,5.705-3.688,5.705H109v4h23.312c2.485,0,4.5,1.89,4.5,4.375c0,1.105-0.399,2.438-1.064,3.217
			c-1.016-0.575-2.186-0.592-3.436-0.592h-27c-1.095,0-2.138-0.125-3.058,0.325c0.485-0.945,0.747-2.395,0.747-3.53v-17.07
			C104,59.415,104.502,60,105.312,60z M103.017,57.07v-0.21c0.115,0.045,0.23,0.08,0.351,0.115
			C103.247,57.005,103.132,57.035,103.017,57.07z M69.312,55c-2.484,0-4.5-2.015-4.5-4.5s2.016-4.5,4.5-4.5h27
			c1.19,0,2.2,0.23,2.936,0.88c-0.595,1.03-1.194,2.163-1.194,3.433c0,2.005,0.947,3.752,1.947,5.033v2.98c-1,1.19-2,2.96-2,4.97
			v13.5c0,0.97,0.008,2.3,0.484,3.18C97.798,79.745,97.072,80,96.312,80h-4.06C91.787,79,91,77.705,91,76.795V55H69.312z
			 M99.102,116.82c-0.785,0.66-1.685,1.18-2.79,1.18h-27c-2.484,0-5.312-2.721-5.312-5.205v-27C64,83.311,66.827,82,69.312,82
			h21.766c1.27,1,3.015,1.92,4.939,1.92c1.09,0,2.12-0.313,3.045-0.758c-0.479,0.95-0.75,1.989-0.75,3.119
			c0,1.245,0.33,2.524,0.905,3.539C98.432,90.49,97.422,91,96.312,91H73v18h23.312c0.605,0,0.688-0.13,1.688,0.085v3.71
			c0,1.42,0.434,2.803,1.159,3.908C99.138,116.723,99.122,116.8,99.102,116.82z M98,99.295v7.165c-1-0.135-1.098,0.54-1.688,0.54H76
			V94h20.312c1.715,0,3.285-0.995,4.5-2.02c0.735,0.625,1.597,0.907,2.547,1.182C100.244,93.908,98,96.23,98,99.295z M136,112.795
			c0,2.484-2.015,4.5-4.5,4.5s-4.5-2.016-4.5-4.5V105h-18v7.795c0,2.484-1.756,4.5-4.242,4.5c-0.925,0-1.919-0.279-2.634-0.766
			c0.005,0-0.124-0.004-0.124-0.004v-0.006c1-0.979,1.063-2.09,1.063-3.27c0-2.285-1.234-4.314-2.93-5.596c0,0-0.134,0-0.134-0.004
			v-8.355c0-2.484,2.827-3.295,5.312-3.295H114v-5h-8.688c-1.109,0-2.115-0.525-2.899-1.189c0.57-1.016,0.899-2.253,0.899-3.498
			c0-0.875-0.16-1.371-0.46-2.146c0.78,0.315,1.61,0.834,2.46,0.834h27c1.25,0,2.42-0.705,3.436-1.279
			c0.665,0.779,1.064,1.736,1.064,2.842c0,2.484-2.015,4.438-4.5,4.438H123v5h9.312c1.155,0,2.146-0.04,2.87,0.575
			c-1.395,2.28-1.363,5.128,0.607,7.103L136,103.96V112.795z M171.807,101.721l-14.57,14.569c-1.34,1.34-3.523,1.34-4.863,0
			L139,102.92v-3.625c0-1.09-0.221-2.095-0.652-2.97l14.03-14.025c1.34-1.34,3.517-1.34,4.856,0l14.571,14.565
			C173.146,98.205,173.146,100.38,171.807,101.721z"/>
		
			<rect x="150.445" y="94.928" transform="matrix(0.7071 -0.7072 0.7072 0.7071 -24.8658 138.5653)" fill="#C3F0F4" width="8.733" height="8.733"/>
	</g>
</g>
</svg>
